HIERARCHY
ROOT Hips
{
 OFFSET 0.000000 0.000000 0.000000
 CHANNELS 6 Xposition Yposition Zposition Yrotation Xrotation Zrotation
 JOINT Chest
 {
  OFFSET 0.000000 9.585900 0.002600
  CHANNELS 3 Yrotation Xrotation Zrotation
  JOINT Chest2
  {
   OFFSET 0.000000 9.601200 -0.005300
   CHANNELS 3 Yrotation Xrotation Zrotation
   JOINT Chest3
   {
    OFFSET 0.000000 9.561800 0.000000
    CHANNELS 3 Yrotation Xrotation Zrotation
    JOINT Chest4
    {
     OFFSET 0.000000 9.552100 0.000000
     CHANNELS 3 Yrotation Xrotation Zrotation
     JOINT Neck
     {
      OFFSET 0.000000 14.453000 0.000000
      CHANNELS 3 Yrotation Xrotation Zrotation
      JOINT Head
      {
       OFFSET 0.000000 8.936500 -0.011300
       CHANNELS 3 Yrotation Xrotation Zrotation
       End Site
       {
        OFFSET 0.000000 17.073600 -0.006000
       }
      }
     }
     JOINT RightCollar
     {
      OFFSET -2.921100 9.558500 0.000000
      CHANNELS 3 Yrotation Xrotation Zrotation
      JOINT RightShoulder
      {
       OFFSET -13.519700 0.000000 0.000000
       CHANNELS 3 Yrotation Xrotation Zrotation
       JOINT RightElbow
       {
        OFFSET 0.000000 -29.696600 0.000000
        CHANNELS 3 Yrotation Xrotation Zrotation
        JOINT RightWrist
        {
         OFFSET 0.000000 -24.004700 0.000000
         CHANNELS 3 Yrotation Xrotation Zrotation
         End Site
         {
          OFFSET 0.000000 -17.728500 0.000000
         }
        }
       }
      }
     }
     JOINT LeftCollar
     {
      OFFSET 2.921100 9.558500 0.000000
      CHANNELS 3 Yrotation Xrotation Zrotation
      JOINT LeftShoulder
      {
       OFFSET 13.519700 0.000000 0.000000
       CHANNELS 3 Yrotation Xrotation Zrotation
       JOINT LeftElbow
       {
        OFFSET 0.000000 -29.696600 0.000000
        CHANNELS 3 Yrotation Xrotation Zrotation
        JOINT LeftWrist
        {
         OFFSET 0.000000 -24.004700 0.000000
         CHANNELS 3 Yrotation Xrotation Zrotation
         End Site
         {
          OFFSET 0.000000 -17.728500 0.000000
         }
        }
       }
      }
     }
    }
   }
  }
 }
 JOINT RightHip
 {
  OFFSET -7.771700 -0.012900 -0.001300
  CHANNELS 3 Yrotation Xrotation Zrotation
  JOINT RightKnee
  {
   OFFSET 0.000000 -40.869800 0.001200
   CHANNELS 3 Yrotation Xrotation Zrotation
   JOINT RightAnkle
   {
    OFFSET 0.000000 -39.717900 0.002100
    CHANNELS 3 Yrotation Xrotation Zrotation
    JOINT RightToe
    {
     OFFSET 0.000000 -4.965400 11.033500
     CHANNELS 3 Yrotation Xrotation Zrotation
     End Site
     {
      OFFSET 0.000000 -1.423100 5.872300
     }
    }
   }
  }
 }
 JOINT LeftHip
 {
  OFFSET 7.771700 -0.012900 -0.001300
  CHANNELS 3 Yrotation Xrotation Zrotation
  JOINT LeftKnee
  {
   OFFSET 0.000000 -40.869800 0.001200
   CHANNELS 3 Yrotation Xrotation Zrotation
   JOINT LeftAnkle
   {
    OFFSET 0.000000 -39.717900 0.002100
    CHANNELS 3 Yrotation Xrotation Zrotation
    JOINT LeftToe
    {
     OFFSET 0.000000 -4.965400 11.033500
     CHANNELS 3 Yrotation Xrotation Zrotation
     End Site
     {
      OFFSET 0.000000 -1.423100 5.872300
     }
    }
   }
  }
 }
}
MOTION
Frames: 8
Frame Time: 0.008333
-4.993287 53.914106 30.073794 178.744452 -31.250340 -10.773542 0.369156 12.036859 5.310484 0.248961 7.109161 2.187215 0.354377 8.881697 2.746831 0.244276 7.100098 2.183648 4.496112 19.878335 0.746055 4.628933 -4.589246 -0.234698 0.543675 3.118008 -1.848552 -15.664094 -7.798293 6.139423 15.788041 -75.624786 -3.090353 8.827027 -4.590502 -14.687564 -9.760729 2.939748 -3.683140 5.954443 -4.049055 -2.317022 -74.714030 -74.598309 81.212064 11.325082 -11.733965 -2.362354 -18.292029 -33.393215 7.061769 27.331006 85.510433 23.992535 0.195672 -16.850748 0.259098 -0.053126 0.318400 -0.018265 -15.490131 -46.424190 17.078918 171.854731 79.815422 167.370317 -1.799607 -15.951866 1.151107 -0.544979 -2.309264 -0.262726
-4.983329 53.982226 30.073592 178.739018 -31.281355 -10.863548 0.397995 12.061630 5.409718 0.250431 7.114179 2.186058 0.355779 8.884970 2.748401 0.249809 7.109610 2.190596 4.496294 19.875564 0.732031 4.622955 -4.597191 -0.235850 0.542801 3.114504 -1.843601 -15.661626 -7.819755 6.128425 15.576167 -75.617161 -2.873014 8.852961 -4.562598 -14.620815 -9.783980 2.947921 -3.678184 5.959627 -4.075047 -2.323245 -74.693277 -74.586841 81.204783 11.305027 -11.704322 -2.382173 -18.340929 -33.352170 7.166532 27.114652 85.539631 23.777285 0.219554 -16.860525 0.254913 -0.057221 0.321012 -0.020357 -15.574507 -46.410625 17.186742 171.373473 79.757886 166.916342 -1.796753 -15.817173 1.145579 -0.609900 -2.445570 -0.291531
-4.976119 54.040782 30.073206 178.727728 -31.320939 -10.939487 0.432014 12.095261 5.497163 0.251664 7.117054 2.189568 0.363931 8.900080 2.764804 0.246953 7.105964 2.181384 4.499107 19.881808 0.718717 4.630048 -4.595796 -0.255592 0.541811 3.113385 -1.840741 -15.664554 -7.835746 6.121708 15.517155 -75.610875 -2.786528 8.870634 -4.545309 -14.617658 -9.804842 2.971906 -3.665147 5.967776 -4.112303 -2.347162 -74.680786 -74.565629 81.201383 11.286369 -11.663647 -2.403914 -18.382874 -33.311823 7.263401 27.097523 85.572043 23.749732 0.225294 -16.884591 0.249538 -0.057233 0.337301 -0.015013 -15.634454 -46.396625 17.266889 170.992018 79.700021 166.563939 -1.763560 -15.702102 1.138750 -0.675096 -2.566031 -0.318340
-4.972923 54.090587 30.073382 178.718833 -31.361191 -10.995844 0.460339 12.132075 5.561121 0.253323 7.119824 2.196502 0.366770 8.906849 2.770995 0.245699 7.110580 2.182380 4.510222 19.893644 0.705416 4.660341 -4.566844 -0.293435 0.555925 3.119515 -1.828064 -15.667558 -7.862781 6.102390 15.564862 -75.603069 -2.820821 8.866522 -4.532078 -14.615885 -9.812834 2.960756 -3.673114 5.959573 -4.123465 -2.339788 -74.639058 -74.555360 81.173378 11.272387 -11.634165 -2.415545 -18.408602 -33.281527 7.334880 27.060947 85.614028 23.702740 0.232131 -16.927818 0.242168 -0.057680 0.362530 -0.005435 -15.673611 -46.383197 17.323467 170.732986 79.651825 166.326342 -1.738894 -15.618120 1.137561 -0.722548 -2.654998 -0.336488
-4.974698 54.132297 30.075065 178.728103 -31.391606 -11.033008 0.467932 12.160154 5.604745 0.259383 7.126651 2.210008 0.356985 8.907049 2.756239 0.248441 7.120608 2.191482 4.512493 19.896288 0.690967 4.671667 -4.551698 -0.309154 0.559736 3.115681 -1.830651 -15.651893 -7.878255 6.091790 15.681848 -75.594021 -2.926373 8.875959 -4.507975 -14.634463 -9.828776 2.964513 -3.672253 5.946087 -4.160907 -2.329360 -74.536409 -74.568226 81.091620 11.267272 -11.623204 -2.418303 -18.424959 -33.280530 7.361151 27.339008 85.663161 23.983395 0.232400 -16.959891 0.241458 -0.060565 0.366243 -0.009009 -15.700588 -46.385487 17.341765 170.498610 79.603253 166.111603 -1.732406 -15.564424 1.134379 -0.755568 -2.709546 -0.348328
-4.977062 54.168383 30.078126 178.735257 -31.419822 -11.065090 0.477162 12.185216 5.641823 0.261607 7.130553 2.212963 0.352743 8.910513 2.754828 0.262000 7.137280 2.211779 4.504734 19.898275 0.667537 4.675606 -4.541443 -0.322261 0.546208 3.099535 -1.849383 -15.591280 -7.894509 6.073125 15.746666 -75.582276 -3.003174 8.890264 -4.501630 -14.681063 -9.854937 2.965755 -3.686270 5.946047 -4.195614 -2.331691 -74.499015 -74.549805 81.055782 11.252396 -11.579319 -2.427211 -18.435256 -33.287349 7.383296 27.621682 85.716941 24.270799 0.233043 -16.991505 0.241643 -0.060943 0.378468 -0.008338 -15.726408 -46.388814 17.359823 170.324155 79.558958 165.951544 -1.721486 -15.531125 1.130948 -0.778288 -2.745000 -0.356400
-4.979996 54.200169 30.082360 178.737390 -31.446927 -11.088890 0.489443 12.206029 5.673083 0.263953 7.135577 2.214909 0.356087 8.918500 2.762093 0.256613 7.136148 2.206975 4.517680 19.919285 0.665546 4.674126 -4.535655 -0.332830 0.543045 3.097677 -1.850012 -15.562887 -7.906933 6.060071 15.708625 -75.579637 -2.989292 8.913242 -4.509050 -14.688764 -9.863051 2.965754 -3.690985 5.943863 -4.206814 -2.331928 -74.483798 -74.539216 81.036827 11.239476 -11.538809 -2.442475 -18.439032 -33.300291 7.402355 27.957978 85.770718 24.609238 0.229815 -17.022712 0.239293 -0.061976 0.387256 -0.006341 -15.745509 -46.392963 17.369825 170.221031 79.519665 165.859620 -1.691547 -15.512458 1.125163 -0.805536 -2.765853 -0.364157
-4.981118 54.229622 30.087095 178.726338 -31.479858 -11.113046 0.517095 12.230892 5.708174 0.261595 7.139719 2.216344 0.372426 8.932189 2.781320 0.259268 7.148270 2.213625 4.503230 19.917566 0.644291 4.677624 -4.523476 -0.340760 0.531297 3.074214 -1.863418 -15.551010 -7.915679 6.046331 15.639491 -75.580448 -2.919947 8.914994 -4.522058 -14.699754 -9.887530 2.951579 -3.708479 5.933013 -4.232951 -2.323758 -74.412645 -74.545248 80.973009 11.245275 -11.491934 -2.482771 -18.438742 -33.306428 7.431408 28.262486 85.821000 24.913556 0.231021 -17.050735 0.235078 -0.064910 0.397009 -0.004780 -15.766633 -46.386425 17.403356 170.114457 79.487851 165.755455 -1.677704 -15.488273 1.127163 -0.826932 -2.790630 -0.373905
